<svg xmlns="http://www.w3.org/2000/svg" x="0px" y="0px" width="64" height="64" viewBox="0 0 64 64">
<polygon fill="#ace3ff" points="57,47 32,62 7,47 7,17 32,2 57,17"></polygon><polygon fill="#f7a1c8" stroke="#000" stroke-miterlimit="10" points="46,40.4 32,48.8 18,40.4 18,23.6 32,15.2 46,23.6"></polygon><polygon fill="#85cbf8" points="7.519,17.452 32,32 32,62 6.765,46"></polygon><polygon fill="#f283a5" points="18,23.6 32,32 32,48.8 18,40"></polygon><polygon fill="#7bbeeb" points="32,32 57,17 57,47 32,61"></polygon><polygon fill="#ed7899" points="32,31.742 46,24 46,41 32,49"></polygon><polygon fill="none" stroke="#8d6c9f" stroke-linecap="round" stroke-linejoin="round" stroke-miterlimit="10" stroke-width="2" points="46,40.4 32,48.8 18,40.4 18,23.6 32,15.2 46,23.6"></polygon><line x1="32" x2="32" y1="2" y2="15" fill="none" stroke="#8d6c9f" stroke-linecap="round" stroke-linejoin="round" stroke-miterlimit="10" stroke-width="2"></line><line x1="46" x2="57" y1="40.4" y2="47" fill="none" stroke="#8d6c9f" stroke-linecap="round" stroke-linejoin="round" stroke-miterlimit="10" stroke-width="2"></line><path fill="#8d6c9f" d="M52.989,28h-2c-0.552,0-1-0.448-1-1s0.448-1,1-1h2c0.552,0,1,0.448,1,1S53.541,28,52.989,28z"></path><path fill="#8d6c9f" d="M52.989,33h-2c-0.552,0-1-0.448-1-1s0.448-1,1-1h2c0.552,0,1,0.448,1,1S53.541,33,52.989,33z"></path><path fill="#8d6c9f" d="M52.989,38h-2c-0.552,0-1-0.448-1-1s0.448-1,1-1h2c0.552,0,1,0.448,1,1S53.541,38,52.989,38z"></path><line x1="18" x2="7" y1="40.4" y2="47" fill="none" stroke="#8d6c9f" stroke-linecap="round" stroke-linejoin="round" stroke-miterlimit="10" stroke-width="2"></line><line x1="32" x2="32" y1="39" y2="41.096" fill="none" stroke="#8d6c9f" stroke-linecap="round" stroke-linejoin="round" stroke-miterlimit="10" stroke-width="2"></line><line x1="32" x2="32" y1="32" y2="35" fill="none" stroke="#8d6c9f" stroke-linecap="round" stroke-linejoin="round" stroke-miterlimit="10" stroke-width="2"></line><line x1="32" x2="32" y1="61.135" y2="45" fill="none" stroke="#8d6c9f" stroke-linecap="round" stroke-linejoin="round" stroke-miterlimit="10" stroke-width="2"></line><polygon fill="none" stroke="#8d6c9f" stroke-linecap="round" stroke-linejoin="round" stroke-miterlimit="10" stroke-width="2" points="57,47 32,62 7,47 7,17 32,2 57,17"></polygon><polyline fill="none" stroke="#8d6c9f" stroke-linecap="round" stroke-linejoin="round" stroke-miterlimit="10" stroke-width="2" points="7,17 32,32 57,17"></polyline>
</svg>
